<svg width="14" height="15" viewBox="0 0 14 15" fill="none" xmlns="http://www.w3.org/2000/svg">
<path d="M2.695 11.07C3.29 10.615 3.955 10.2562 4.69 9.99375C5.425 9.73125 6.195 9.6 7 9.6C7.805 9.6 8.575 9.73125 9.31 9.99375C10.045 10.2562 10.71 10.615 11.305 11.07C11.7133 10.5917 12.0312 10.0492 12.2587 9.4425C12.4862 8.83583 12.6 8.18833 12.6 7.5C12.6 5.94833 12.0546 4.62708 10.9637 3.53625C9.87292 2.44542 8.55167 1.9 7 1.9C5.44833 1.9 4.12708 2.44542 3.03625 3.53625C1.94542 4.62708 1.4 5.94833 1.4 7.5C1.4 8.18833 1.51375 8.83583 1.74125 9.4425C1.96875 10.0492 2.28667 10.5917 2.695 11.07ZM7 8.2C6.31167 8.2 5.73125 7.96375 5.25875 7.49125C4.78625 7.01875 4.55 6.43833 4.55 5.75C4.55 5.06167 4.78625 4.48125 5.25875 4.00875C5.73125 3.53625 6.31167 3.3 7 3.3C7.68833 3.3 8.26875 3.53625 8.74125 4.00875C9.21375 4.48125 9.45 5.06167 9.45 5.75C9.45 6.43833 9.21375 7.01875 8.74125 7.49125C8.26875 7.96375 7.68833 8.2 7 8.2ZM7 14.5C6.03167 14.5 5.12167 14.3162 4.27 13.9487C3.41833 13.5812 2.6775 13.0825 2.0475 12.4525C1.4175 11.8225 0.91875 11.0817 0.55125 10.23C0.18375 9.37833 0 8.46833 0 7.5C0 6.53167 0.18375 5.62167 0.55125 4.77C0.91875 3.91833 1.4175 3.1775 2.0475 2.5475C2.6775 1.9175 3.41833 1.41875 4.27 1.05125C5.12167 0.68375 6.03167 0.5 7 0.5C7.96833 0.5 8.87833 0.68375 9.73 1.05125C10.5817 1.41875 11.3225 1.9175 11.9525 2.5475C12.5825 3.1775 13.0812 3.91833 13.4487 4.77C13.8162 5.62167 14 6.53167 14 7.5C14 8.46833 13.8162 9.37833 13.4487 10.23C13.0812 11.0817 12.5825 11.8225 11.9525 12.4525C11.3225 13.0825 10.5817 13.5812 9.73 13.9487C8.87833 14.3162 7.96833 14.5 7 14.5ZM7 13.1C7.61833 13.1 8.20167 13.0096 8.75 12.8288C9.29833 12.6479 9.8 12.3883 10.255 12.05C9.8 11.7117 9.29833 11.4521 8.75 11.2712C8.20167 11.0904 7.61833 11 7 11C6.38167 11 5.79833 11.0904 5.25 11.2712C4.70167 11.4521 4.2 11.7117 3.745 12.05C4.2 12.3883 4.70167 12.6479 5.25 12.8288C5.79833 13.0096 6.38167 13.1 7 13.1ZM7 6.8C7.30333 6.8 7.55417 6.70083 7.7525 6.5025C7.95083 6.30417 8.05 6.05333 8.05 5.75C8.05 5.44667 7.95083 5.19583 7.7525 4.9975C7.55417 4.79917 7.30333 4.7 7 4.7C6.69667 4.7 6.44583 4.79917 6.2475 4.9975C6.04917 5.19583 5.95 5.44667 5.95 5.75C5.95 6.05333 6.04917 6.30417 6.2475 6.5025C6.44583 6.70083 6.69667 6.8 7 6.8Z" fill="white"/>
</svg>
